<svg xmlns="http://www.w3.org/2000/svg" width="20" height="16.154" viewBox="0 0 20 16.154"><defs><style>.a{fill:#fff;}</style></defs><g transform="translate(-87 -239)"><path class="a" d="M106.112,239H87.888a.888.888,0,0,0-.888.888v6.269h20v-6.269A.888.888,0,0,0,106.112,239Zm-11.5,4.556H89.9a.888.888,0,1,1,0-1.775H94.61a.888.888,0,0,1,0,1.775Zm5.7-.009a.888.888,0,1,1,.888-.888A.888.888,0,0,1,100.314,243.548Zm3.787,0a.888.888,0,1,1,.888-.888A.888.888,0,0,1,104.1,243.548Z"/><path class="a" d="M87,396.279a.888.888,0,0,0,.888.888h18.225a.888.888,0,0,0,.888-.888v-6.335H87Zm17.1-3.846a.888.888,0,1,1-.888.888A.888.888,0,0,1,104.1,392.432Zm-3.787,0a.888.888,0,1,1-.888.888A.888.888,0,0,1,100.314,392.432Zm-10.414,0H94.61a.888.888,0,0,1,0,1.775H89.9a.888.888,0,1,1,0-1.775Z" transform="translate(0 -142.012)"/></g></svg>