<svg xmlns="http://www.w3.org/2000/svg" width="20" height="13.75" viewBox="0 0 20 13.75"><defs><style>.a{fill:#fff;}</style></defs><g transform="translate(0 -80)"><g transform="translate(13.257 82.535)"><g transform="translate(0 0)"><path class="a" d="M339.392,149.338l6.742,4.263V144.9Z" transform="translate(-339.392 -144.896)"/></g></g><g transform="translate(0 82.535)"><g transform="translate(0 0)"><path class="a" d="M0,144.9V153.6l6.743-4.263Z" transform="translate(0 -144.896)"/></g></g><g transform="translate(0.037 80)"><g transform="translate(0 0)"><path class="a" d="M19.672,80H2.172A1.234,1.234,0,0,0,.96,81.064l9.962,6.564,9.962-6.564A1.234,1.234,0,0,0,19.672,80Z" transform="translate(-0.96 -80)"/></g></g><g transform="translate(0.04 87.731)"><g transform="translate(0 0)"><path class="a" d="M13.1,277.921l-1.769,1.165a.628.628,0,0,1-.687,0L8.872,277.92l-7.848,4.964a1.232,1.232,0,0,0,1.21,1.055h17.5a1.232,1.232,0,0,0,1.21-1.055Z" transform="translate(-1.024 -277.92)"/></g></g></g></svg>