<svg xmlns="http://www.w3.org/2000/svg" width="20" height="20" viewBox="0 0 20 20"><defs><style>.a{fill:#fff;}</style></defs><g transform="translate(0 -0.03)"><path class="a" d="M16.629,17.519A10.006,10.006,0,1,1,9.387.03V4.219a5.837,5.837,0,1,0,4.289,10.346Z"/><path class="a" d="M22.89,12.75A9.841,9.841,0,0,1,20.4,18.741L17.45,15.787A5.747,5.747,0,0,0,18.7,12.75Z" transform="translate(-2.89 -2.107)"/><path class="a" d="M22.112,9.392H17.923A5.824,5.824,0,0,0,12.75,4.219V.03A10,10,0,0,1,22.112,9.392Z" transform="translate(-2.112 0)"/></g></svg>