<svg xmlns="http://www.w3.org/2000/svg" width="20.004" height="20" viewBox="0 0 20.004 20"><defs><style>.a{fill:#fff;}</style></defs><g transform="translate(0 -0.05)"><g transform="translate(0 7.905)"><path class="a" d="M5,187.75H.716a.718.718,0,0,0-.716.716v10.714a.715.715,0,0,0,.716.716H5a.715.715,0,0,0,.716-.716V188.466A.715.715,0,0,0,5,187.75Z" transform="translate(0 -187.75)"/></g><g transform="translate(7.144 0.05)"><g transform="translate(0 0)"><path class="a" d="M175.7.05h-4.285a.714.714,0,0,0-.716.711V19.334a.715.715,0,0,0,.716.716H175.7a.715.715,0,0,0,.716-.716V.766A.715.715,0,0,0,175.7.05Z" transform="translate(-170.7 -0.05)"/></g></g><g transform="translate(14.288 5.762)"><path class="a" d="M346.4,136.55h-4.285a.713.713,0,0,0-.716.716v12.856a.715.715,0,0,0,.716.716H346.4a.715.715,0,0,0,.716-.716V137.266A.715.715,0,0,0,346.4,136.55Z" transform="translate(-341.4 -136.55)"/></g></g></svg>