<svg xmlns="http://www.w3.org/2000/svg" width="17.578" height="20" viewBox="0 0 17.578 20"><defs><style>.a{fill:#fff;}</style></defs><g transform="translate(-31)"><g transform="translate(31 9.18)"><g transform="translate(0)"><path class="a" d="M31,235v8.477h1.172v-7.3H35.1V235Z" transform="translate(-31 -235)"/></g></g><g transform="translate(44.477 9.18)"><path class="a" d="M376,235v1.172h2.93v7.3H380.1V235Z" transform="translate(-376 -235)"/></g><g transform="translate(32.172)"><g transform="translate(0)"><path class="a" d="M62.172,6.836V0H61V8.008h2.93V6.836Z" transform="translate(-61)"/></g></g><g transform="translate(44.477)"><path class="a" d="M377.758,0V6.836H376V8.008h2.93V0Z" transform="translate(-376)"/></g><g transform="translate(34.516)"><path class="a" d="M122.172,4.492V0H121V5.664h1.758V5.078a3.526,3.526,0,0,1,.049-.586Z" transform="translate(-121)"/></g><g transform="translate(43.256)"><path class="a" d="M345.378,0V4.492h-.635a3.526,3.526,0,0,1,.049.586v.586h1.758V0Z" transform="translate(-344.743)"/></g><g transform="translate(44.134 11.523)"><g transform="translate(0)"><path class="a" d="M367.542,295a4.646,4.646,0,0,1-.306,1.172h.928v7.3h1.172V295Z" transform="translate(-367.236 -295)"/></g></g><g transform="translate(33.344 11.523)"><g transform="translate(0)"><path class="a" d="M92.794,295H91v8.477h1.172v-7.3H93.1A4.648,4.648,0,0,1,92.794,295Z" transform="translate(-91 -295)"/></g></g><g transform="translate(36.273 8.008)"><g transform="translate(0)"><path class="a" d="M166,205v2.93a3.516,3.516,0,0,0,2.93,3.467V213.2H170.1V211.4a3.516,3.516,0,0,0,2.93-3.467V205Z" transform="translate(-166 -205)"/></g></g><g transform="translate(37.445 0.977)"><path class="a" d="M200.1,27.552V25H198.93v1.832a2.362,2.362,0,0,0-1.172,0V25h-1.172v2.552A2.334,2.334,0,0,0,196,29.1v1.758h4.687V29.1A2.334,2.334,0,0,0,200.1,27.552Z" transform="translate(-196 -25)"/></g></g></svg>